<?xml version="1.0" encoding="iso-8859-1"?>
<!-- Uploaded to: SVG Repo, www.svgrepo.com, Generator: SVG Repo Mixer Tools -->
<svg version="1.1" id="Layer_1" xmlns="http://www.w3.org/2000/svg" xmlns:xlink="http://www.w3.org/1999/xlink" 
	 viewBox="0 0 512 512" xml:space="preserve">
<polyline style="fill:#F2CA7F;" points="82.92,396.18 44.206,396.18 44.206,105.82 307.466,105.82 307.466,132.921 307.466,396.18 
	186.159,396.18 "/>
<rect x="44.206" y="303.375" style="fill:#79B1D6;" width="263.261" height="92.807"/>
<path style="fill:#8CC1EA;" d="M342.631,396.18h-35.166v-263.26h91.715c49.645,0,89.883,40.238,89.883,89.87v173.39h-43.193"/>
<g>
	<circle style="fill:#898686;" cx="134.544" cy="396.182" r="51.615"/>
	<circle style="fill:#898686;" cx="394.254" cy="396.182" r="51.615"/>
</g>
<path style="fill:#CEE5F2;" d="M450.349,262.614v-39.825c0-28.207-22.954-51.155-51.169-51.155H346.18v90.98H450.349z"/>
<g>
	<circle style="fill:#EDEBEB;" cx="134.544" cy="396.182" r="20.611"/>
	<circle style="fill:#EDEBEB;" cx="394.254" cy="396.182" r="20.611"/>
</g>
<circle style="fill:#FFFFFF;" cx="86.969" cy="144.085" r="78.801"/>
<path d="M399.18,162.921h-53c-4.512,0-8.169,3.657-8.169,8.169v90.98c0,4.511,3.656,8.169,8.169,8.169h104.168
	c4.512,0,8.169-3.657,8.169-8.169v-39.825C458.517,189.534,431.899,162.921,399.18,162.921z M442.179,253.901h-87.831v-74.642
	h44.831c23.711,0,42.999,19.284,42.999,42.986v31.656H442.179z"/>
<path d="M450.348,299.713c-4.512,0-8.169,3.657-8.169,8.169v24.519c0,4.511,3.656,8.169,8.169,8.169s8.169-3.657,8.169-8.169
	v-24.519C458.517,303.371,454.86,299.713,450.348,299.713z"/>
<path d="M503.831,364.364h-6.599V222.246c0-54.058-43.986-98.039-98.052-98.039h-83.542v-18.933c0-4.511-3.656-8.169-8.169-8.169
	H188.523c-4.512,0-8.169,3.657-8.169,8.169s3.656,8.169,8.169,8.169h110.778l-0.004,181.214h-29.134
	c-4.512,0-8.169,3.657-8.169,8.169s3.656,8.169,8.169,8.169h29.134v76.47H193.755c-3.998-29.113-29.021-51.617-59.215-51.617
	s-55.217,22.503-59.215,51.617H52.378v-6.764h8.165c4.512,0,8.169-3.657,8.169-8.169c0-4.511-3.656-8.169-8.169-8.169h-8.165
	v-53.369h185.11c4.512,0,8.169-3.657,8.169-8.169s-3.656-8.169-8.169-8.169H52.378v-57.693c0-4.511-3.656-8.169-8.169-8.169
	s-8.169,3.657-8.169,8.169v65.798c0,0.022-0.003,0.041-0.003,0.063c0,0.022,0.003,0.041,0.003,0.063v61.474H23.992
	c-4.512,0-8.169,3.657-8.169,8.169c0,4.511,3.656,8.169,8.169,8.169H36.04v14.932c0,4.511,3.656,8.169,8.169,8.169h31.115
	c3.996,29.115,29.02,51.622,59.215,51.622s55.219-22.506,59.215-51.622l141.278,0.002c3.997,29.114,29.022,51.62,59.217,51.62
	c30.195,0,55.218-22.505,59.215-51.62h35.598c4.512,0,8.169-3.657,8.169-8.169v-14.935h6.599c4.512,0,8.169-3.657,8.169-8.169
	C512,368.021,508.343,364.364,503.831,364.364z M134.54,439.087c-23.958,0-43.451-19.492-43.451-43.451
	c0-23.959,19.492-43.451,43.451-43.451s43.451,19.492,43.451,43.451C177.991,419.595,158.498,439.087,134.54,439.087z
	 M394.251,439.087c-23.955,0-43.443-19.484-43.451-43.437c0-0.004,0.001-0.01,0.001-0.014c0-0.004-0.001-0.01-0.001-0.014
	c0.008-23.953,19.497-43.437,43.451-43.437c23.958,0,43.451,19.492,43.451,43.451C437.702,419.595,418.209,439.087,394.251,439.087z
	 M480.895,387.467h-27.429c-3.997-29.114-29.021-51.62-59.215-51.62c-30.195,0-55.219,22.505-59.217,51.62h-19.395V140.545h83.542
	c45.057,0,81.714,36.651,81.714,81.701v142.118H467.28c-4.512,0-8.169,3.657-8.169,8.169c0,4.511,3.656,8.169,8.169,8.169h13.615
	L480.895,387.467L480.895,387.467z"/>
<path d="M86.965,230.506c47.952,0,86.965-39.013,86.965-86.965s-39.012-86.965-86.965-86.965c-14.475,0-28.81,3.631-41.457,10.501
	c-3.965,2.153-5.432,7.113-3.279,11.077c2.155,3.963,7.111,5.433,11.078,3.278c10.26-5.573,21.899-8.519,33.658-8.519
	c38.944,0,70.628,31.684,70.628,70.628s-31.684,70.628-70.628,70.628s-70.628-31.682-70.628-70.626
	c0-14.154,4.169-27.806,12.058-39.483c2.525-3.738,1.542-8.816-2.197-11.341c-3.739-2.527-8.817-1.542-11.341,2.196
	C5.138,109.301,0,126.117,0,143.542C0,191.494,39.012,230.506,86.965,230.506z"/>
<path d="M86.965,89.895c-4.512,0-8.169,3.657-8.169,8.169v45.478c0,4.511,3.656,8.169,8.169,8.169h20.176
	c4.512,0,8.169-3.657,8.169-8.169c0-4.511-3.656-8.169-8.169-8.169H95.134V98.064C95.134,93.553,91.476,89.895,86.965,89.895z"/>
<path d="M134.54,366.856c-15.869,0-28.78,12.911-28.78,28.78c0,15.869,12.911,28.78,28.78,28.78s28.78-12.911,28.78-28.78
	C163.32,379.767,150.41,366.856,134.54,366.856z M134.54,408.078c-6.861,0-12.443-5.582-12.443-12.443s5.582-12.443,12.443-12.443
	c6.861,0,12.443,5.582,12.443,12.443S141.4,408.078,134.54,408.078z"/>
<path d="M394.251,366.856c-15.869,0-28.781,12.911-28.781,28.78c0,15.869,12.911,28.78,28.781,28.78
	c15.87,0,28.78-12.911,28.78-28.78C423.031,379.767,410.12,366.856,394.251,366.856z M394.251,408.078
	c-6.862,0-12.444-5.582-12.444-12.443s5.582-12.443,12.444-12.443c6.861,0,12.443,5.582,12.443,12.443
	S401.11,408.078,394.251,408.078z"/>
</svg>